<?xml version="1.0" encoding="UTF-8" standalone="no" ?>
<!DOCTYPE svg PUBLIC "-//W3C//DTD SVG 1.1//EN" "http://www.w3.org/Graphics/SVG/1.1/DTD/svg11.dtd">
<svg xmlns="http://www.w3.org/2000/svg" xmlns:xlink="http://www.w3.org/1999/xlink" version="1.1" width="800" height="800" viewBox="0 0 800 800" xml:space="preserve">
<desc>Created with Fabric.js 5.2.4</desc>
<defs>
</defs>
<rect x="0" y="0" width="100%" height="100%" fill="transparent"></rect>
<g transform="matrix(Infinity NaN NaN Infinity 0 0)" id="ba3da083-c475-4716-95f3-54d7f36b5203"  >
</g>
<g transform="matrix(1 0 0 1 400 400)" id="1018206c-e829-4c4d-bd47-40a4fc64bf36"  >
<rect style="stroke: none; stroke-width: 1; stroke-dasharray: none; stroke-linecap: butt; stroke-dashoffset: 0; stroke-linejoin: miter; stroke-miterlimit: 4; fill: rgb(255,255,255); fill-rule: nonzero; opacity: 1; visibility: hidden;" vector-effect="non-scaling-stroke"  x="-400" y="-400" rx="0" ry="0" width="800" height="800" />
</g>
<g transform="matrix(4.04 0 0 4.04 400 400)"  >
<g style="" vector-effect="non-scaling-stroke"   >
		<g transform="matrix(1 0 0 1 0 0)"  >
<path style="stroke: none; stroke-width: 1; stroke-dasharray: none; stroke-linecap: butt; stroke-dashoffset: 0; stroke-linejoin: miter; stroke-miterlimit: 4; fill: rgb(233,80,55); fill-rule: nonzero; opacity: 1;" vector-effect="non-scaling-stroke"  transform=" translate(-125.95, -125.96)" d="M 144.084961 213.170212 C 138.85173 216.53331 133.517227 218.88974 128.132523 221.125229 C 123.67704 222.97493 122.845428 222.472717 122.822243 217.627548 C 122.744881 201.464767 122.635094 185.299591 122.853569 169.139603 C 122.914696 164.61879 121.615456 162.639908 116.923645 161.992523 C 111.296265 161.216019 106.020065 158.831619 101.505699 155.263565 C 98.855003 153.168518 96.888275 153.376511 94.690529 155.815491 C 93.085541 157.596649 91.417648 160.057266 88.592125 157.200165 C 85.871094 154.448761 88.474045 152.989059 90.064507 151.576996 C 92.709335 149.228836 92.81662 147.232117 90.588402 144.38533 C 86.830658 139.584457 84.621834 133.889832 83.910355 127.894478 C 83.456833 124.072914 81.753418 123.199432 78.405113 123.265877 C 76.494507 123.303795 73.752884 124.267426 73.566978 120.694336 C 73.392174 117.334435 75.541206 116.809448 78.107437 117.007683 C 82.103767 117.316383 83.542511 115.59053 84.00193 111.59269 C 84.653183 105.925491 86.946861 100.626953 90.450966 96.067978 C 92.672142 93.178146 92.959579 90.947083 89.963806 88.438843 C 88.301147 87.046761 85.967972 85.446754 88.664337 82.761566 C 91.241714 80.19487 92.914925 82.133537 94.430969 83.880035 C 96.789345 86.596893 98.840202 87.117912 101.989639 84.680496 C 106.926651 80.85965 112.799156 78.811775 118.95311 77.785416 C 120.932465 77.455299 122.660179 77.113266 122.665649 74.683914 C 122.692162 62.894348 122.67762 51.104679 122.67762 39.48473 C 120.406319 38.575924 118.931282 39.49316 117.416832 40.081234 C 97.250946 47.911766 77.092712 55.762024 56.919266 63.57299 C 54.271839 64.598045 52.324314 65.810623 52.299294 69.196999 C 52.042446 103.958252 57.225704 137.526459 74.015411 168.531662 C 81.158058 181.721817 90.601784 193.052399 102.419998 202.360657 C 105.897362 205.099487 105.892387 205.246414 104.523621 210.901413 C 96.65937 206.140411 90.060722 200.237579 84.106621 193.525314 C 64.425064 171.337677 54.851189 144.657913 49.723125 116.033203 C 46.780376 99.60688 45.591362 83.037949 45.982189 66.340202 C 46.077457 62.270031 47.613583 60.21619 51.518322 58.735901 C 75.338028 49.705864 99.041054 40.368336 122.808495 31.19949 C 124.587875 30.513052 126.348846 29.199492 128.638489 30.100243 C 129.869278 32.908802 129.20903 35.935654 129.240463 38.867546 C 129.361923 50.197178 129.408676 61.528461 129.356705 72.858543 C 129.342255 76.012222 130.159134 77.537529 133.739349 77.959442 C 139.559433 78.645317 145.09668 80.764252 149.795593 84.378296 C 152.858093 86.733719 155.216507 86.903885 157.863541 83.862503 C 159.306931 82.204094 161.048325 80.019203 163.569885 82.847893 C 165.784225 85.331932 163.933456 86.836487 162.297562 88.210915 C 159.498688 90.562424 159.132263 92.71109 161.564163 95.753212 C 165.379715 100.526192 167.274719 106.290085 168.342789 112.231339 C 168.953033 115.625916 170.424759 117.310112 173.966476 116.954323 C 178.285156 116.520493 179.145508 118.803703 178.238495 122.407341 C 177.908264 122.655884 177.623581 123.047783 177.391998 123.018578 C 170.939682 122.204842 167.871063 124.779335 167.333542 131.512955 C 166.96524 136.126541 164.594772 140.470886 161.608307 144.109436 C 159.191071 147.054489 159.277435 149.220474 162.186035 151.656311 C 163.602524 152.842545 165.643875 154.256912 163.947052 156.644012 C 162.140381 159.185608 160.073395 159.059189 158.267609 156.705795 C 155.546005 153.158844 153.011826 153.3853 149.51828 155.976456 C 144.804169 159.4729 139.25386 161.445251 133.405701 162.353638 C 130.738632 162.767899 129.275864 163.966858 129.30072 166.939865 C 129.423248 181.601303 129.42215 196.263763 129.486557 210.925766 C 129.489304 211.551117 129.708817 212.175522 129.844345 212.889969 C 133.039703 212.927032 135.350601 211.181396 137.769348 209.845276 C 163.748642 195.494019 178.885712 172.512695 188.401962 145.327469 C 196.897354 121.058517 200.063095 95.900757 199.799286 70.233963 C 199.758636 66.279457 198.498947 64.401871 194.773193 62.946068 C 178.645447 56.644302 162.70369 49.867397 146.590881 43.526012 C 142.650696 41.975307 142.083023 39.760548 143.467529 35.529366 C 152.014923 38.985172 160.305405 42.313679 168.577408 45.687511 C 178.905716 49.900028 189.105789 54.463814 199.590851 58.238033 C 204.154755 59.880856 205.788452 62.367531 205.907867 66.886482 C 206.433578 86.779678 204.588486 106.44088 200.328308 125.864212 C 195.344467 148.586899 186.798462 169.727173 172.172913 188.101715 C 164.321136 197.966171 155.096252 206.29982 144.084961 213.170212 M 143.012894 152.595612 C 158.520493 143.321045 165.512863 127.727997 161.570984 111.210953 C 157.460297 93.98671 139.697845 81.457947 122.221886 83.456032 C 103.847832 85.556801 89.323235 101.48822 89.382256 119.632828 C 89.466255 145.452591 116.423027 165.639954 143.012894 152.595612 z" stroke-linecap="round" />
</g>
		<g transform="matrix(1 0 0 1 0.08 -5.93)"  >
<path style="stroke: none; stroke-width: 1; stroke-dasharray: none; stroke-linecap: butt; stroke-dashoffset: 0; stroke-linejoin: miter; stroke-miterlimit: 4; fill: rgb(233,80,55); fill-rule: nonzero; opacity: 1;" vector-effect="non-scaling-stroke"  transform=" translate(-126.03, -120.02)" d="M 139.772369 137.919159 C 129.370773 144.33963 118.089996 143.673035 110.522179 136.442368 C 103.245049 129.489441 101.306435 118.081261 106.194229 109.397339 C 110.885399 101.062744 118.344894 97.144562 127.745972 97.779121 C 136.527954 98.371918 143.301865 102.790695 146.642807 111.116043 C 150.133987 119.815758 148.923553 128.066086 142.567062 135.263885 C 141.800095 136.132355 140.896866 136.880447 139.772369 137.919159 M 118.855148 131.895187 C 118.232574 132.718887 117.643562 133.550858 118.734642 134.448166 C 122.823776 137.81105 129.435135 137.23465 133.488602 133.166458 C 127.637512 123.928986 126.612411 123.80349 118.855148 131.895187 M 123.581657 112.79808 C 127.163544 114.953651 130.077332 113.166748 133.363205 106.799469 C 128.716873 102.748734 124.097206 102.66153 118.533958 106.681259 C 119.217827 109.193207 121.487961 110.512283 123.581657 112.79808 M 111.302132 113.697578 C 109.470596 118.695671 109.147247 123.502464 112.581802 128.036682 C 115.160927 126.891106 116.431084 125.074181 117.890617 123.519081 C 119.148308 122.17907 121.760986 120.73703 119.664085 118.664169 C 117.380348 116.406593 116.242477 112.093628 111.302132 113.697578 M 139.506958 112.290359 C 136.311157 113.325363 134.789917 116.309845 132.473862 118.366554 C 131.48996 119.240265 131.252945 120.410469 132.24559 121.451546 C 134.384415 123.694725 136.2005 126.354248 139.95961 127.714188 C 142.677841 122.530067 142.992218 117.647507 139.506958 112.290359 z" stroke-linecap="round" />
</g>
</g>
</g>
</svg>